<svg width="270" height="120" viewBox="0 0 270 120" fill="none" xmlns="http://www.w3.org/2000/svg">
<rect width="270" height="120" fill="#E5E5E5"/>
<g clip-path="url(#clip0)">
<rect x="-215" y="-774" width="1600" height="3018" fill="white"/>
<rect width="270" height="120" rx="4" fill="#2196F3"/>
<path d="M167.316 73.3385L148.847 54.7337L150.897 44.6373C151.426 44.8438 151.988 44.9517 152.556 44.9558H152.57C155.178 44.9866 157.317 42.8974 157.348 40.2893C157.379 37.6812 155.289 35.542 152.681 35.5111C150.073 35.4803 147.934 37.5695 147.903 40.1776C147.897 40.7357 147.989 41.2905 148.176 41.8163L137.326 43.1405L119.628 25.35C119.41 25.1285 119.114 25.0025 118.804 25C118.498 25.0016 118.204 25.1235 117.987 25.3395L114.679 28.6295C114.223 29.0851 114.223 29.8236 114.679 30.2792L116.459 32.0852C109.562 44.7681 111.802 60.4741 121.97 70.7228C122.064 70.8121 122.172 70.8843 122.29 70.9363C122.216 71.3311 122.178 71.7317 122.176 72.1333V85.6667H108.176C104.956 85.6705 102.346 88.28 102.342 91.5V93.8333C102.342 94.4776 102.865 95 103.509 95H157.176C157.82 95 158.342 94.4776 158.342 93.8333V91.5C158.338 88.28 155.729 85.6705 152.509 85.6667H138.509V79.6688C140.702 80.1288 142.937 80.3633 145.178 80.3688C150.555 80.363 155.846 79.0225 160.578 76.4675L162.367 78.2677C162.584 78.4892 162.881 78.6152 163.191 78.6177C163.497 78.6161 163.79 78.4941 164.008 78.2782L167.316 74.9882C167.772 74.5326 167.772 73.7941 167.316 73.3385ZM150.925 38.6348C151.838 37.726 153.316 37.7301 154.224 38.6437C155.133 39.5574 155.129 41.0348 154.215 41.9435C153.778 42.3785 153.186 42.6226 152.569 42.6225H152.562C151.274 42.6158 150.235 41.5658 150.241 40.2771C150.244 39.6602 150.492 39.0699 150.929 38.6348H150.925ZM148.178 46.301L146.869 52.7445L144.298 50.158L148.178 46.301ZM146.853 44.3282L142.653 48.5037L139.404 45.237L146.853 44.3282ZM152.509 88C154.442 88 156.009 89.567 156.009 91.5V92.6667H104.676V91.5C104.676 89.567 106.243 88 108.176 88H152.509ZM136.176 83.3333V85.6667H124.509V83.3333H136.176ZM124.509 81V72.1333C124.509 69.303 127.126 67 130.342 67C133.559 67 136.176 69.303 136.176 72.1333V81H124.509ZM138.509 77.29V72.1333C138.509 68.0162 134.846 64.6667 130.342 64.6667C127.431 64.622 124.708 66.1041 123.165 68.5738C114.289 59.2249 112.29 45.2875 118.181 33.8207L158.872 74.7455C152.589 77.9419 145.386 78.8418 138.509 77.29ZM163.204 75.7943L161.56 74.1412L118.792 31.1157L117.141 29.4613L118.792 27.8163L136.15 45.272C136.158 45.272 136.163 45.2872 136.171 45.293L164.859 74.1493L163.204 75.7943Z" fill="white"/>
<path d="M130.353 69.3333H130.342C128.409 69.3304 126.84 70.895 126.837 72.8281C126.834 74.7611 128.399 76.3304 130.332 76.3333H130.342C132.275 76.3362 133.844 74.7716 133.847 72.8386C133.85 70.9055 132.286 69.3362 130.353 69.3333ZM131.169 73.6605C130.95 73.8789 130.652 74.0012 130.342 74C129.698 73.9966 129.178 73.4716 129.182 72.8273C129.183 72.5189 129.307 72.2237 129.526 72.0062C129.743 71.7902 130.036 71.6683 130.342 71.6667C130.986 71.67 131.506 72.195 131.503 72.8393C131.501 73.1477 131.377 73.4429 131.159 73.6605H131.169Z" fill="white"/>
<path d="M215.333 125C215.087 125 214.856 125.067 214.658 125.184C214.584 124.519 214.018 124 213.333 124C213.008 124 212.709 124.118 212.476 124.314C212.243 123.926 211.818 123.667 211.333 123.667C211.091 123.667 210.863 123.732 210.667 123.846V120.333C210.667 119.598 210.069 119 209.333 119C208.598 119 208 119.598 208 120.333V129.255C208 129.423 207.889 129.509 207.842 129.538C207.794 129.567 207.666 129.628 207.517 129.553L205.377 128.482C205.182 128.385 204.963 128.333 204.745 128.333C203.967 128.333 203.333 128.967 203.333 129.745V130C203.333 130.092 203.372 130.181 203.439 130.244L207.286 133.835C208.092 134.586 209.142 135 210.243 135H212.333C214.723 135 216.667 133.056 216.667 130.667V126.333C216.667 125.598 216.069 125 215.333 125ZM216 130.667C216 132.688 214.355 134.333 212.333 134.333H210.243C209.311 134.333 208.423 133.983 207.741 133.347L204 129.855V129.745C204 129.334 204.334 129 204.745 129C204.86 129 204.976 129.027 205.079 129.079L207.219 130.149C207.532 130.306 207.895 130.288 208.192 130.105C208.489 129.922 208.667 129.604 208.667 129.255V120.333C208.667 119.966 208.966 119.667 209.333 119.667C209.701 119.667 210 119.966 210 120.333V125.333C210 125.518 210.149 125.667 210.333 125.667C210.517 125.667 210.667 125.518 210.667 125.333V125C210.667 124.633 210.966 124.333 211.333 124.333C211.701 124.333 212 124.633 212 125V125.333C212 125.334 212 125.335 212 125.335V125.336C212.001 125.519 212.15 125.667 212.333 125.667C212.517 125.667 212.667 125.518 212.667 125.333V125.328C212.669 124.963 212.968 124.667 213.333 124.667C213.701 124.667 214 124.966 214 125.333V126.333C214 126.518 214.149 126.667 214.333 126.667C214.517 126.667 214.667 126.518 214.667 126.333C214.667 125.966 214.966 125.667 215.333 125.667C215.701 125.667 216 125.966 216 126.333V130.667Z" fill="black"/>
</g>
<defs>
<clipPath id="clip0">
<rect x="-215" y="-774" width="1600" height="3018" fill="white"/>
</clipPath>
</defs>
</svg>
