<svg width="175" height="90" viewBox="0 0 175 90" fill="none" xmlns="http://www.w3.org/2000/svg">
<rect width="175" height="90" fill="#E5E5E5"/>
<g clip-path="url(#clip0)">
<rect x="-815" y="-2487" width="1600" height="2924" fill="white"/>
<rect x="0.5" y="0.5" width="174" height="89" rx="3.5" stroke="#AFB1B8"/>
<path d="M59.7669 37.4309H59.7641C57.4353 37.4309 55.5474 39.1624 55.5474 41.2984V41.301C55.5474 43.4369 57.4353 45.1685 59.7641 45.1685H59.7669C62.0957 45.1685 63.9836 43.4369 63.9836 41.301V41.2984C63.9836 39.1624 62.0957 37.4309 59.7669 37.4309Z" fill="#AFB1B8"/>
<path d="M90.8909 36.1946C90.8843 33.2279 89.5967 30.3844 87.3097 28.2864C85.0228 26.1884 81.9228 25.0067 78.6882 25V25C75.4527 25.0054 72.3513 26.1865 70.0632 28.2846C67.775 30.3828 66.4866 33.2271 66.48 36.1946V52.5544C66.48 52.5544 90.8882 50.0611 90.8909 36.1972V36.1946Z" fill="#AFB1B8"/>
<path d="M47 57.924C47.0059 59.9882 47.9023 61.9664 49.4935 63.4263C51.0847 64.8862 53.2412 65.709 55.4919 65.7151C57.742 65.709 59.8981 64.8865 61.4892 63.4272C63.0803 61.9679 63.9771 59.9903 63.9837 57.9265V46.5432C63.9837 46.5432 47 48.2794 47 57.924ZM55.4919 59.9635C55.052 59.9635 54.6221 59.8439 54.2564 59.6198C53.8907 59.3957 53.6057 59.0772 53.4374 58.7045C53.2691 58.3318 53.2251 57.9217 53.3109 57.5261C53.3967 57.1304 53.6084 56.767 53.9194 56.4818C54.2304 56.1965 54.6267 56.0023 55.058 55.9236C55.4894 55.8449 55.9365 55.8853 56.3428 56.0397C56.7492 56.194 57.0965 56.4554 57.3408 56.7908C57.5852 57.1262 57.7156 57.5206 57.7156 57.924C57.7167 58.1924 57.66 58.4585 57.5487 58.7068C57.4374 58.9552 57.2738 59.1809 57.0672 59.3711C56.8606 59.5613 56.6151 59.7122 56.3448 59.8152C56.0744 59.9182 55.7846 59.9712 55.4919 59.9712V59.9635Z" fill="#AFB1B8"/>
<text fill="#AFB1B8" xml:space="preserve" style="white-space: pre" font-family="Roboto" font-size="6" font-weight="bold" letter-spacing="0em"><tspan x="69.7932" y="60.1245">FOSTER PETERS</tspan></text>
</g>
<defs>
<clipPath id="clip0">
<rect x="-815" y="-2487" width="1600" height="2924" fill="white"/>
</clipPath>
</defs>
</svg>
