<svg width="170" height="90" viewBox="0 0 170 90" fill="none" xmlns="http://www.w3.org/2000/svg">
<rect width="170" height="90" fill="#E5E5E5"/>
<g clip-path="url(#clip0)">
<rect x="-815" y="-2487" width="1600" height="2924" fill="white"/>
<rect x="0.5" y="0.5" width="174" height="89" rx="3.5" stroke="#2196F3"/>
<path d="M59.7669 37.4309H59.7641C57.4353 37.4309 55.5474 39.1624 55.5474 41.2984V41.301C55.5474 43.4369 57.4353 45.1685 59.7641 45.1685H59.7669C62.0957 45.1685 63.9836 43.4369 63.9836 41.301V41.2984C63.9836 39.1624 62.0957 37.4309 59.7669 37.4309Z" fill="#2196F3"/>
<path d="M90.8909 36.1946C90.8843 33.2279 89.5967 30.3844 87.3097 28.2864C85.0228 26.1884 81.9228 25.0067 78.6882 25V25C75.4527 25.0054 72.3513 26.1865 70.0632 28.2846C67.775 30.3828 66.4866 33.2271 66.48 36.1946V52.5544C66.48 52.5544 90.8882 50.0611 90.8909 36.1972V36.1946Z" fill="#2196F3"/>
<path d="M47 57.924C47.0059 59.9882 47.9023 61.9664 49.4935 63.4263C51.0847 64.8862 53.2412 65.709 55.4919 65.7151C57.742 65.709 59.8981 64.8865 61.4892 63.4272C63.0803 61.9679 63.9771 59.9903 63.9837 57.9265V46.5432C63.9837 46.5432 47 48.2794 47 57.924ZM55.4919 59.9635C55.052 59.9635 54.6221 59.8439 54.2564 59.6198C53.8907 59.3957 53.6057 59.0772 53.4374 58.7045C53.2691 58.3318 53.2251 57.9217 53.3109 57.5261C53.3967 57.1304 53.6084 56.767 53.9194 56.4818C54.2304 56.1965 54.6267 56.0023 55.058 55.9236C55.4894 55.8449 55.9365 55.8853 56.3428 56.0397C56.7492 56.194 57.0965 56.4554 57.3408 56.7908C57.5852 57.1262 57.7156 57.5206 57.7156 57.924C57.7167 58.1924 57.66 58.4585 57.5487 58.7068C57.4374 58.9552 57.2738 59.1809 57.0672 59.3711C56.8606 59.5613 56.6151 59.7122 56.3448 59.8152C56.0744 59.9182 55.7846 59.9712 55.4919 59.9712V59.9635Z" fill="#2196F3"/>
<text fill="#2196F3" xml:space="preserve" style="white-space: pre" font-family="Roboto" font-size="6" font-weight="bold" letter-spacing="0em"><tspan x="69.7932" y="60.1245">FOSTER PETERS</tspan></text>
<path d="M148.333 65C148.087 65 147.856 65.0671 147.658 65.1839C147.584 64.5186 147.018 64 146.333 64C146.008 64 145.709 64.1178 145.476 64.3141C145.243 63.9264 144.818 63.6667 144.333 63.6667C144.091 63.6667 143.863 63.7318 143.667 63.8457V60.3333C143.667 59.598 143.069 59 142.333 59C141.598 59 141 59.598 141 60.3333V69.2546C141 69.4225 140.889 69.5088 140.842 69.5381C140.794 69.5674 140.666 69.6276 140.517 69.5527L138.377 68.4824C138.182 68.3848 137.963 68.3333 137.745 68.3333C136.967 68.3333 136.333 68.9668 136.333 69.7455V70C136.333 70.0924 136.372 70.1807 136.439 70.2438L140.286 73.8346C141.092 74.5859 142.142 75 143.243 75H145.333C147.723 75 149.667 73.056 149.667 70.6667V66.3333C149.667 65.598 149.069 65 148.333 65ZM149 70.6667C149 72.6885 147.355 74.3333 145.333 74.3333H143.243C142.311 74.3333 141.423 73.9831 140.741 73.347L137 69.8552V69.7455C137 69.3343 137.334 69 137.745 69C137.86 69 137.976 69.0273 138.079 69.0788L140.219 70.1491C140.532 70.3057 140.895 70.2884 141.192 70.1055C141.489 69.9219 141.667 69.6038 141.667 69.2546V60.3333C141.667 59.9658 141.966 59.6667 142.333 59.6667C142.701 59.6667 143 59.9658 143 60.3333V65.3333C143 65.5176 143.149 65.6667 143.333 65.6667C143.517 65.6667 143.667 65.5176 143.667 65.3333V65C143.667 64.6325 143.966 64.3333 144.333 64.3333C144.701 64.3333 145 64.6325 145 65V65.3333C145 65.334 145 65.3347 145 65.3353C145.001 65.5182 145.15 65.6667 145.333 65.6667C145.517 65.6667 145.667 65.5176 145.667 65.3333V65.3281C145.669 64.9632 145.968 64.6667 146.333 64.6667C146.701 64.6667 147 64.9658 147 65.3333V66.3333C147 66.5176 147.149 66.6667 147.333 66.6667C147.517 66.6667 147.667 66.5176 147.667 66.3333C147.667 65.9658 147.966 65.6667 148.333 65.6667C148.701 65.6667 149 65.9658 149 66.3333V70.6667Z" fill="black"/>
</g>
<defs>
<clipPath id="clip0">
<rect x="-815" y="-2487" width="1600" height="2924" fill="white"/>
</clipPath>
</defs>
</svg>
