<svg width="20" height="20" viewBox="0 0 20 20" fill="none" xmlns="http://www.w3.org/2000/svg">
<rect width="20" height="20" fill="#E5E5E5"/>
<g clip-path="url(#clip0)">
<rect x="-410" y="-2151" width="1600" height="2924" fill="white"/>
<rect x="-410" y="-552" width="1600" height="702" fill="#F5F4FA"/>
<g filter="url(#filter0_ddd)">
<rect x="-210" y="-366" width="278" height="422" rx="4" fill="white"/>
</g>
<g clip-path="url(#clip1)">
<path d="M19.9951 20.0001V19.9993H20.0001V12.6643C20.0001 9.07593 19.2276 6.31177 15.0326 6.31177C13.0159 6.31177 11.6626 7.41843 11.1101 8.4676H11.0517V6.64677H7.07422V19.9993H11.2159V13.3876C11.2159 11.6468 11.5459 9.96343 13.7017 9.96343C15.8259 9.96343 15.8576 11.9501 15.8576 13.4993V20.0001H19.9951Z" fill="#AFB1B8"/>
<path d="M0.330078 6.64746H4.47675V20H0.330078V6.64746Z" fill="#AFB1B8"/>
<path d="M2.40167 0C1.07583 0 0 1.07583 0 2.40167C0 3.7275 1.07583 4.82583 2.40167 4.82583C3.7275 4.82583 4.80333 3.7275 4.80333 2.40167C4.8025 1.07583 3.72667 0 2.40167 0V0Z" fill="#AFB1B8"/>
</g>
</g>
<defs>
<filter id="filter0_ddd" x="-213" y="-368" width="284" height="428" filterUnits="userSpaceOnUse" color-interpolation-filters="sRGB">
<feFlood flood-opacity="0" result="BackgroundImageFix"/>
<feColorMatrix in="SourceAlpha" type="matrix" values="0 0 0 0 0 0 0 0 0 0 0 0 0 0 0 0 0 0 127 0"/>
<feOffset dy="2"/>
<feGaussianBlur stdDeviation="0.5"/>
<feColorMatrix type="matrix" values="0 0 0 0 0 0 0 0 0 0 0 0 0 0 0 0 0 0 0.2 0"/>
<feBlend mode="normal" in2="BackgroundImageFix" result="effect1_dropShadow"/>
<feColorMatrix in="SourceAlpha" type="matrix" values="0 0 0 0 0 0 0 0 0 0 0 0 0 0 0 0 0 0 127 0"/>
<feOffset dy="1"/>
<feGaussianBlur stdDeviation="0.5"/>
<feColorMatrix type="matrix" values="0 0 0 0 0 0 0 0 0 0 0 0 0 0 0 0 0 0 0.14 0"/>
<feBlend mode="normal" in2="effect1_dropShadow" result="effect2_dropShadow"/>
<feColorMatrix in="SourceAlpha" type="matrix" values="0 0 0 0 0 0 0 0 0 0 0 0 0 0 0 0 0 0 127 0"/>
<feOffset dy="1"/>
<feGaussianBlur stdDeviation="1.5"/>
<feColorMatrix type="matrix" values="0 0 0 0 0 0 0 0 0 0 0 0 0 0 0 0 0 0 0.12 0"/>
<feBlend mode="normal" in2="effect2_dropShadow" result="effect3_dropShadow"/>
<feBlend mode="normal" in="SourceGraphic" in2="effect3_dropShadow" result="shape"/>
</filter>
<clipPath id="clip0">
<rect x="-410" y="-2151" width="1600" height="2924" fill="white"/>
</clipPath>
<clipPath id="clip1">
<rect width="20" height="20" fill="white"/>
</clipPath>
</defs>
</svg>
